<svg width="18" height="18" viewBox="0 0 18 18" fill="none" xmlns="http://www.w3.org/2000/svg">
<g clip-path="url(#clip0_54_329)">
<path d="M8.607 11.25C8.40809 11.25 8.21732 11.329 8.07667 11.4697C7.93602 11.6103 7.857 11.8011 7.857 12V14.25C7.857 14.8467 7.61995 15.419 7.19799 15.841C6.77603 16.2629 6.20374 16.5 5.607 16.5H3.75C3.15326 16.5 2.58097 16.2629 2.15901 15.841C1.73705 15.419 1.5 14.8467 1.5 14.25V3.75C1.5 3.15326 1.73705 2.58097 2.15901 2.15901C2.58097 1.73705 3.15326 1.5 3.75 1.5H5.607C6.20374 1.5 6.77603 1.73705 7.19799 2.15901C7.61995 2.58097 7.857 3.15326 7.857 3.75V6C7.857 6.19891 7.93602 6.38968 8.07667 6.53033C8.21732 6.67098 8.40809 6.75 8.607 6.75C8.80591 6.75 8.99668 6.67098 9.13733 6.53033C9.27798 6.38968 9.357 6.19891 9.357 6V3.75C9.35581 2.7558 8.96034 1.80267 8.25734 1.09966C7.55433 0.396661 6.6012 0.00119089 5.607 0H3.75C2.7558 0.00119089 1.80267 0.396661 1.09967 1.09966C0.396662 1.80267 0.00119089 2.7558 0 3.75L0 14.25C0.00119089 15.2442 0.396662 16.1973 1.09967 16.9003C1.80267 17.6033 2.7558 17.9988 3.75 18H5.607C6.6012 17.9988 7.55433 17.6033 8.25734 16.9003C8.96034 16.1973 9.35581 15.2442 9.357 14.25V12C9.357 11.8011 9.27798 11.6103 9.13733 11.4697C8.99668 11.329 8.80591 11.25 8.607 11.25Z" fill="#775CFF"/>
<path d="M17.1503 7.40925L13.7108 3.96975C13.6416 3.89812 13.5588 3.84098 13.4673 3.80167C13.3758 3.76237 13.2774 3.74168 13.1778 3.74081C13.0782 3.73995 12.9795 3.75892 12.8873 3.79663C12.7951 3.83434 12.7114 3.89003 12.641 3.96045C12.5705 4.03087 12.5148 4.11461 12.4771 4.20678C12.4394 4.29896 12.4204 4.39772 12.4213 4.4973C12.4222 4.59689 12.4429 4.6953 12.4822 4.7868C12.5215 4.87831 12.5786 4.96106 12.6503 5.03025L15.8468 8.2275L4.5 8.25C4.30109 8.25 4.11032 8.32902 3.96967 8.46967C3.82902 8.61032 3.75 8.80109 3.75 9C3.75 9.19891 3.82902 9.38968 3.96967 9.53033C4.11032 9.67098 4.30109 9.75 4.5 9.75L15.891 9.72675L12.6488 12.9697C12.5771 13.0389 12.52 13.1217 12.4807 13.2132C12.4414 13.3047 12.4207 13.4031 12.4198 13.5027C12.4189 13.6023 12.4379 13.701 12.4756 13.7932C12.5133 13.8854 12.569 13.9691 12.6395 14.0395C12.7099 14.11 12.7936 14.1657 12.8858 14.2034C12.978 14.2411 13.0767 14.2601 13.1763 14.2592C13.2759 14.2583 13.3743 14.2376 13.4658 14.1983C13.5573 14.159 13.6401 14.1019 13.7092 14.0303L17.1488 10.5907C17.5708 10.169 17.808 9.59693 17.8083 9.00031C17.8086 8.40369 17.5719 7.83139 17.1503 7.40925Z" fill="#775CFF"/>
</g>
<defs>
<clipPath id="clip0_54_329">
<rect width="18" height="18" fill="white"/>
</clipPath>
</defs>
</svg>
