<svg width="25" height="26" viewBox="0 0 25 26" fill="none" xmlns="http://www.w3.org/2000/svg">
<g clip-path="url(#clip0_1_609)">
<path d="M0 16.0715C0.0913149 15.6454 0.121753 15.2091 0.223214 14.7829C1.01461 11.4652 3.7642 8.95909 7.13271 8.49236C9.375 8.18798 11.4042 8.70543 13.2305 10.0447C13.3827 10.1563 13.4639 10.1665 13.6059 10.0244C15.1989 8.42134 16.8019 6.81826 18.405 5.22532C18.5369 5.09342 18.5369 5.0021 18.4659 4.82962C17.918 3.54107 18.0601 2.31339 18.9631 1.2379C19.8661 0.162413 21.0633 -0.233285 22.433 0.121828C23.7926 0.476942 24.655 1.40024 24.929 2.78011C25.1928 4.11939 24.7565 5.2659 23.6709 6.10803C22.6055 6.94001 21.3981 7.06176 20.1603 6.52402C19.9878 6.453 19.9067 6.47329 19.7849 6.59504C18.1818 8.20827 16.5787 9.81136 14.9655 11.4144C14.8438 11.5362 14.8336 11.6072 14.9351 11.7493C18.5674 16.6701 15.9192 23.5999 9.93304 24.8479C9.58807 24.9189 9.23295 24.9595 8.87784 25.0102H7.71104C7.53856 24.9392 7.34578 24.9493 7.16315 24.9291C3.81494 24.4826 1.00446 21.936 0.23336 18.6588C0.131899 18.2123 0.0811688 17.7456 0 17.2992V16.0817L0 16.0715ZM1.94805 16.7006C1.94805 20.201 4.78896 23.052 8.28937 23.0622C11.7796 23.0622 14.6307 20.2314 14.6408 16.7411C14.651 13.2407 11.8101 10.3795 8.30966 10.3694C4.80925 10.3694 1.94805 13.2103 1.94805 16.7107V16.7006ZM21.5808 1.95827C20.7792 1.95827 20.1197 2.61777 20.1197 3.41931C20.1197 4.22085 20.7691 4.88035 21.5706 4.8905C22.3823 4.8905 23.0519 4.231 23.0418 3.41931C23.0418 2.61777 22.3823 1.95827 21.5706 1.96842L21.5808 1.95827Z" fill="black"/>
</g>
<defs>
<clipPath id="clip0_1_609">
<rect width="25" height="25.0101" fill="white"/>
</clipPath>
</defs>
</svg>
