<svg width="24" height="24" viewBox="0 0 24 24" fill="none" xmlns="http://www.w3.org/2000/svg">
<path d="M22.0194 12.2332C22.0194 11.3699 21.9494 10.7399 21.798 10.0865H11.9539V13.9832H17.7322C17.6157 14.9515 16.9866 16.4099 15.5886 17.3898L15.569 17.5203L18.6816 19.935L18.8972 19.9565C20.8776 18.1249 22.0194 15.4298 22.0194 12.2332Z" fill="#4285F4"/>
<path d="M11.9532 22.5C14.7841 22.5 17.1606 21.5666 18.8965 19.9566L15.5879 17.3899C14.7026 18.0082 13.5142 18.4399 11.9532 18.4399C9.18054 18.4399 6.82729 16.6083 5.98842 14.0766L5.86546 14.087L2.62899 16.5954L2.58667 16.7132C4.31083 20.1432 7.85241 22.5 11.9532 22.5Z" fill="#34A853"/>
<path d="M5.98899 14.0767C5.76765 13.4233 5.63955 12.7233 5.63955 12C5.63955 11.2766 5.76765 10.5766 5.97735 9.92331L5.97148 9.78417L2.69445 7.23553L2.58724 7.28661C1.87662 8.70996 1.46887 10.3083 1.46887 12C1.46887 13.6916 1.87662 15.2899 2.58724 16.7133L5.98899 14.0767Z" fill="#FBBC05"/>
<path d="M11.9533 5.55997C13.9221 5.55997 15.2501 6.41163 16.0074 7.12335L18.9665 4.23C17.1491 2.53834 14.7841 1.5 11.9533 1.5C7.85244 1.5 4.31084 3.85665 2.58667 7.28662L5.97679 9.92332C6.82731 7.39166 9.18058 5.55997 11.9533 5.55997Z" fill="#EB4335"/>
</svg>
