<svg width="16" height="16" viewBox="0 0 16 16" fill="none" xmlns="http://www.w3.org/2000/svg">
<g clip-path="url(#clip0_1_425)">
<path d="M0 10.1185C0.0152 6.03206 2.2824 2.89286 5.6752 1.83206C6.89512 1.42737 8.19438 1.3215 9.46373 1.52336C10.7331 1.72522 11.9354 2.22891 12.9696 2.99206C12.9946 3.00273 13.0169 3.01896 13.0347 3.03951C13.0526 3.06007 13.0655 3.08442 13.0725 3.11072C13.0795 3.13701 13.0804 3.16455 13.0752 3.19126C13.07 3.21797 13.0588 3.24314 13.0424 3.26486C12.1624 5.15819 11.288 7.05446 10.4192 8.95366C10.3313 9.202 10.2609 9.45623 10.2088 9.71446C10.1936 9.77077 10.1568 9.8188 10.1064 9.84806C9.57988 10.0414 9.1481 10.4302 8.9008 10.9337C8.86932 10.9881 8.82064 11.0306 8.7624 11.0545C7.67549 11.4901 6.74399 12.2413 6.088 13.2113C5.79625 13.664 5.39068 14.0321 4.91192 14.2788C4.43316 14.5255 3.89799 14.642 3.36 14.6169C2.74851 14.5922 2.15778 14.3882 1.66134 14.0303C1.1649 13.6724 0.78468 13.1764 0.568 12.6041C0.243907 11.8122 0.0520217 10.9725 0 10.1185M3.6616 5.59686C3.6622 5.9621 3.80658 6.31241 4.06349 6.57202C4.3204 6.83162 4.66919 6.97965 5.0344 6.98406C5.40552 6.98407 5.76155 6.83713 6.02464 6.57539C6.28774 6.31364 6.4365 5.95838 6.4384 5.58726C6.42863 5.22478 6.27747 4.8805 6.01723 4.62799C5.75699 4.37547 5.40831 4.23476 5.0457 4.23591C4.68309 4.23706 4.33531 4.37998 4.07668 4.63414C3.81805 4.88829 3.66908 5.23353 3.6616 5.59606M9.2128 5.76086C9.48761 5.76387 9.75712 5.68522 9.98719 5.5349C10.2173 5.38458 10.3975 5.16934 10.5051 4.91647C10.6127 4.66359 10.6429 4.38446 10.5917 4.11445C10.5405 3.84443 10.4103 3.59569 10.2176 3.39974C10.0249 3.20379 9.77841 3.06945 9.50929 3.01375C9.24017 2.95805 8.96057 2.9835 8.70593 3.08686C8.45129 3.19022 8.23306 3.36686 8.0789 3.59437C7.92475 3.82189 7.8416 4.09004 7.84 4.36486C7.83913 4.73199 7.98316 5.08464 8.24081 5.34618C8.49845 5.60772 8.8489 5.75703 9.216 5.76166M3.3208 10.9809C3.59518 10.9782 3.86259 10.8941 4.08921 10.7394C4.31584 10.5847 4.49149 10.3663 4.59396 10.1118C4.69643 9.85724 4.72112 9.57803 4.66489 9.30946C4.60866 9.04089 4.47404 8.79503 4.27807 8.60298C4.0821 8.41092 3.83357 8.2813 3.56393 8.2305C3.29428 8.17971 3.01562 8.21002 2.76321 8.31761C2.51079 8.4252 2.29595 8.60523 2.14585 8.83493C1.99576 9.06463 1.91716 9.33368 1.92 9.60806C1.92135 9.79039 1.95874 9.97065 2.03002 10.1385C2.10129 10.3063 2.20504 10.4584 2.3353 10.586C2.46556 10.7135 2.61975 10.8141 2.78902 10.8819C2.95829 10.9497 3.13928 10.9833 3.3216 10.9809" fill="#775CFF"/>
<path d="M11.8168 10.7713C12.0479 10.9806 12.2102 11.2551 12.2824 11.5585C12.3541 11.8345 12.3362 12.1261 12.2312 12.3913C11.9841 12.9985 11.5786 13.5283 11.057 13.9254C10.5354 14.3225 9.91673 14.5724 9.26562 14.6489C9.31762 14.4497 9.37122 14.2761 9.40722 14.0985C9.46577 13.7109 9.44893 13.3156 9.35762 12.9345C9.24212 12.4232 9.27572 11.8896 9.45443 11.3969C9.57034 11.0684 9.79899 10.7917 10.0997 10.6159C10.4004 10.4401 10.7537 10.3767 11.0968 10.4369C11.1064 10.4369 11.1168 10.4369 11.0872 10.4369C11.0123 10.2225 10.9543 10.0026 10.9136 9.77926C10.9048 9.62257 10.9367 9.46627 11.0064 9.32566C12.208 6.70966 13.4139 4.09632 14.624 1.48566C14.6529 1.40181 14.6987 1.32476 14.7585 1.25925C14.8183 1.19374 14.8908 1.14114 14.9717 1.1047C15.0525 1.06826 15.14 1.04875 15.2287 1.04735C15.3174 1.04596 15.4054 1.06271 15.4873 1.09659C15.5693 1.13047 15.6435 1.18076 15.7053 1.24436C15.7671 1.30796 15.8153 1.38353 15.8468 1.46642C15.8783 1.54932 15.8926 1.63779 15.8887 1.72639C15.8847 1.815 15.8628 1.90187 15.824 1.98166C14.8347 4.67819 13.8432 7.37339 12.8496 10.0673C12.7865 10.2629 12.6647 10.4343 12.5006 10.5582C12.3365 10.682 12.1383 10.7522 11.9328 10.7593L11.8176 10.7705" fill="#775CFF"/>
<path d="M13.2176 10.8417C13.5399 10.2222 13.8045 9.57442 14.008 8.90646C14.4184 7.82246 14.812 6.73206 15.2136 5.64486C15.2248 5.61446 15.2384 5.58566 15.2512 5.55606C15.2648 5.55606 15.2792 5.55606 15.2824 5.56486C15.7258 6.23879 15.9749 7.02184 16.0024 7.82806C15.9806 8.53321 15.7211 9.2103 15.2662 9.74948C14.8112 10.2887 14.1874 10.6583 13.496 10.7985C13.4112 10.8137 13.3264 10.8249 13.2208 10.8417" fill="#775CFF"/>
</g>
<defs>
<clipPath id="clip0_1_425">
<rect width="16" height="16" fill="white"/>
</clipPath>
</defs>
</svg>
