<svg width="14" height="14" viewBox="0 0 14 14" fill="none" xmlns="http://www.w3.org/2000/svg">
<path d="M3.5459 13.125C3.5461 12.893 3.63842 12.6706 3.80257 12.5067L8.2779 8.03134C8.41336 7.89592 8.52081 7.73513 8.59413 7.55817C8.66744 7.38122 8.70517 7.19155 8.70517 7.00001C8.70517 6.80846 8.66744 6.61879 8.59413 6.44184C8.52081 6.26488 8.41336 6.1041 8.2779 5.96867L3.8084 1.49625C3.64901 1.33123 3.56081 1.1102 3.56281 0.880779C3.5648 0.651357 3.65683 0.431896 3.81906 0.269664C3.98129 0.107431 4.20075 0.0154087 4.43017 0.013415C4.65959 0.0114214 4.88062 0.0996165 5.04565 0.259005L9.51515 4.72792C10.1161 5.33007 10.4536 6.14606 10.4536 6.9968C10.4536 7.84753 10.1161 8.66352 9.51515 9.26567L5.03982 13.741C4.91762 13.8633 4.76194 13.9466 4.59243 13.9805C4.42291 14.0144 4.24716 13.9973 4.08734 13.9314C3.92753 13.8655 3.79081 13.7538 3.69445 13.6102C3.59809 13.4667 3.5464 13.2979 3.5459 13.125Z" fill="black"/>
</svg>
