<svg width="18" height="20" viewBox="0 0 18 20" fill="none" xmlns="http://www.w3.org/2000/svg">
<path d="M16.9526 6.82173C16.8571 6.87744 14.5838 8.0531 14.5838 10.6598C14.691 13.6326 17.4526 14.6752 17.5 14.6752C17.4526 14.7309 17.0831 16.0954 15.9883 17.5257C15.1196 18.7578 14.1553 20 12.691 20C11.2981 20 10.7981 19.1788 9.19097 19.1788C7.46504 19.1788 6.97668 20 5.65525 20C4.19096 20 3.15524 18.6912 2.23909 17.4707C1.04887 15.8732 0.0372223 13.3664 0.00150793 10.9593C-0.0225605 9.68384 0.239862 8.43004 0.906013 7.36507C1.84623 5.87831 3.52481 4.86905 5.35789 4.83577C6.76239 4.79164 8.0124 5.73434 8.86954 5.73434C9.69097 5.73434 11.2267 4.83577 12.9643 4.83577C13.7143 4.83649 15.7143 5.04703 16.9526 6.82173ZM8.75075 4.5811C8.50075 3.41629 9.19097 2.25148 9.83383 1.50846C10.6553 0.609897 11.9526 0 13.0714 0C13.1428 1.16481 12.6902 2.30719 11.8812 3.1392C11.1553 4.03777 9.90526 4.71422 8.75075 4.5811Z" fill="#1A202C"/>
</svg>
