<svg width="96" height="89" viewBox="0 0 96 89" fill="none" xmlns="http://www.w3.org/2000/svg">
<path d="M11.3649 41.4131V39.6759C5.21765 43.7179 1.14183 50.2424 0.205259 57.5393C-0.731222 64.8363 1.56625 72.1787 6.49378 77.6409L5.05716 88.4806L14.3693 83.5176C22.3677 87.3455 31.7899 86.6914 39.1829 81.794C31.0077 78.6648 23.9722 73.1307 19.0064 65.9213C14.0397 58.7127 11.376 50.1676 11.365 41.4132L11.3649 41.4131Z" fill="#A796FF"/>
<path d="M90.2599 61.8773C92.8143 57.5912 94.558 52.8724 95.406 47.9549C95.5627 47.084 95.6893 46.1657 95.7849 45.1993L95.784 45.2002C96.2468 40.6871 95.9644 36.1295 94.9487 31.7085C94.792 31.0471 94.6225 30.3939 94.4394 29.7499C94.3438 29.4274 94.2481 29.1058 94.1525 28.7833C93.952 28.1393 93.7389 27.5034 93.5129 26.8767C92.8288 25.0037 92.0071 23.1835 91.057 21.4307C90.7436 20.8477 90.413 20.2774 90.0641 19.7199C89.2105 18.3152 88.2722 16.9634 87.2564 15.6716C86.8474 15.1578 86.412 14.6531 85.9501 14.1567C85.4882 13.6602 85.0537 13.1774 84.6437 12.7073C84.191 12.2372 83.7291 11.7754 83.259 11.3226C75.6477 4.05483 65.5287 0 55.0042 0C44.4796 0 34.3613 4.05483 26.7484 11.3226C26.2783 11.7754 25.8164 12.2372 25.3637 12.7073C24.9109 13.1774 24.4755 13.6611 24.0573 14.1567C23.631 14.6531 23.1955 15.1578 22.751 15.6716C21.7352 16.9634 20.7987 18.3153 19.9442 19.7199C19.6045 20.2856 19.2738 20.8559 18.9513 21.4307C18.0002 23.1834 17.1803 25.0035 16.4962 26.8767C16.2703 27.5034 16.0562 28.1393 15.8567 28.7833C15.7611 29.1058 15.6654 29.4274 15.5698 29.7499C15.3867 30.3939 15.2172 31.0471 15.0605 31.7085C14.5968 33.7281 14.2862 35.7806 14.1331 37.8466C14.0548 38.8742 14.0156 39.91 14.0156 40.9548C14.0147 43.7279 14.2953 46.4926 14.851 49.2093C14.9904 49.8798 15.1425 50.5411 15.3083 51.1943C16.0854 54.1104 17.1849 56.9318 18.5861 59.6044C18.8912 60.1965 19.2046 60.775 19.5262 61.3416C20.0227 62.2125 20.5447 63.0479 21.0931 63.8495C21.4584 64.398 21.8374 64.9336 22.2291 65.4556C22.6208 65.9776 23.0253 66.4914 23.4434 66.997C24.0702 67.754 24.7233 68.4901 25.402 69.2043C25.8548 69.6743 26.3166 70.1362 26.7867 70.589C27.5009 71.2676 28.236 71.9208 28.994 72.5476L29.7647 73.1616C30.2785 73.5706 30.805 73.9623 31.3452 74.3367L32.1551 74.8979C32.7035 75.2632 33.2565 75.6203 33.814 75.9692L34.663 76.4784C36.6781 77.6363 38.788 78.6183 40.9706 79.4164L41.8069 79.7034C48.8989 82.1367 56.5211 82.5885 63.8516 81.0098C64.7917 80.8012 65.7237 80.5616 66.6464 80.2919C67.6995 79.9785 68.7317 79.6306 69.7418 79.247C70.7521 78.8635 71.7442 78.429 72.7199 77.9407C73.6947 77.4706 74.6439 76.9696 75.5667 76.4385C76.9532 75.6468 78.2906 74.775 79.5749 73.8267L95.9909 78.7633L93.1177 70.3659L90.2599 61.8773ZM35.7889 44.1288C34.7058 44.1288 33.7292 43.4766 33.3157 42.4763C32.9012 41.4761 33.1299 40.3246 33.896 39.5584C34.6612 38.7923 35.8127 38.5636 36.813 38.9781C37.8142 39.3926 38.4664 40.3682 38.4664 41.4513C38.4664 42.9298 37.2673 44.1288 35.7889 44.1288ZM54.4511 44.1288C53.368 44.1288 52.3923 43.4766 51.9779 42.4763C51.5635 41.4761 51.7921 40.3246 52.5582 39.5584C53.3234 38.7923 54.4749 38.5636 55.4762 38.9781C56.4764 39.3926 57.1287 40.3682 57.1287 41.4513C57.1287 42.9253 55.938 44.1213 54.464 44.1286L54.4511 44.1288ZM73.1134 44.1288C72.0302 44.1288 71.0546 43.4766 70.6402 42.4763C70.2257 41.4761 70.4543 40.3246 71.2205 39.5584C71.9857 38.7923 73.1372 38.5636 74.1384 38.9781C75.1387 39.3926 75.7909 40.3682 75.7909 41.4513C75.7909 42.9253 74.6002 44.1213 73.1262 44.1286L73.1134 44.1288Z" fill="white"/>
<path d="M34.2123 48.3457C34.2123 48.3457 27.0709 45.7674 27.0709 41.0666C27.0562 39.1003 28.7677 37.5117 30.8777 37.5117C32.3679 37.5117 33.6664 38.3191 34.2861 39.491C34.9058 38.3191 36.2043 37.5117 37.6945 37.5117C39.8046 37.5117 41.5161 39.1003 41.5161 41.0666C41.5161 45.7414 34.2123 48.3457 34.2123 48.3457Z" fill="#775CFF"/>
<path d="M54.0744 48.3457C54.0744 48.3457 46.933 45.7674 46.933 41.0666C46.9182 39.1003 48.6297 37.5117 50.7398 37.5117C52.23 37.5117 53.5285 38.3191 54.1482 39.491C54.7679 38.3191 56.0664 37.5117 57.5566 37.5117C59.6666 37.5117 61.3781 39.1003 61.3781 41.0666C61.3781 45.7414 54.0744 48.3457 54.0744 48.3457Z" fill="#775CFF"/>
<path d="M73.9367 48.3457C73.9367 48.3457 66.7953 45.7674 66.7953 41.0666C66.7805 39.1003 68.492 37.5117 70.6021 37.5117C72.0923 37.5117 73.3908 38.3191 74.0105 39.491C74.6302 38.3191 75.9287 37.5117 77.4189 37.5117C79.5289 37.5117 81.2405 39.1003 81.2405 41.0666C81.2405 45.7414 73.9367 48.3457 73.9367 48.3457Z" fill="#775CFF"/>
</svg>
