<svg width="17" height="16" viewBox="0 0 17 16" fill="none" xmlns="http://www.w3.org/2000/svg">
<path d="M13.5792 0H3.42078C1.53417 0 0 1.53406 0 3.42063V9.6401C0 11.5267 1.53417 13.0607 3.42063 13.0607H6.36452L7.87803 15.2376C8.0024 15.445 8.25112 15.5693 8.50001 15.5693C8.74875 15.5693 8.9768 15.445 9.10116 15.2584L10.6353 13.0609H13.5792C15.4658 13.0608 17 11.5267 17 9.64012V3.42065C17 1.53404 15.4658 1.83589e-05 13.5792 1.83589e-05L13.5792 0ZM4.29151 8.08531C3.42078 8.08531 2.73664 7.38047 2.73664 6.53044C2.73664 5.65972 3.42078 4.97558 4.29151 4.97558C5.14154 4.97558 5.84637 5.65972 5.84637 6.53044C5.84637 7.40117 5.16223 8.08531 4.29151 8.08531ZM8.43782 8.08531C7.56709 8.08531 6.88295 7.38047 6.88295 6.53044C6.88295 5.65972 7.56709 4.97558 8.43782 4.97558C9.28785 4.97558 9.99269 5.65972 9.99269 6.53044C9.99269 7.40117 9.30855 8.08531 8.43782 8.08531ZM12.5841 8.06463C11.7134 8.06463 11.0293 7.38049 11.0293 6.50976C11.0293 5.63904 11.7341 4.9549 12.5841 4.9549C13.4342 4.9549 14.1183 5.65973 14.139 6.50976C14.139 7.38049 13.4549 8.06463 12.5841 8.06463Z" fill="#48B2FF"/>
</svg>
