<svg width="16" height="16" viewBox="0 0 16 16" fill="none" xmlns="http://www.w3.org/2000/svg">
<g clip-path="url(#clip0_1_511)">
<path d="M8.00001 4C7.47259 4 6.95702 4.1564 6.51849 4.44941C6.07996 4.74243 5.73817 5.15891 5.53633 5.64618C5.3345 6.13345 5.28169 6.66962 5.38458 7.18691C5.48748 7.70419 5.74145 8.17935 6.11439 8.55229C6.48733 8.92523 6.96249 9.1792 7.47977 9.28209C7.99705 9.38499 8.53323 9.33218 9.0205 9.13035C9.50777 8.92851 9.92425 8.58672 10.2173 8.14819C10.5103 7.70966 10.6667 7.19408 10.6667 6.66667C10.6667 5.95942 10.3857 5.28115 9.88563 4.78105C9.38553 4.28095 8.70726 4 8.00001 4ZM8.00001 8C7.7363 8 7.47852 7.9218 7.25925 7.77529C7.03999 7.62878 6.86909 7.42055 6.76817 7.17691C6.66726 6.93328 6.64085 6.66519 6.6923 6.40655C6.74374 6.14791 6.87073 5.91033 7.0572 5.72386C7.24367 5.53739 7.48125 5.4104 7.73989 5.35895C7.99853 5.30751 8.26662 5.33391 8.51026 5.43483C8.75389 5.53574 8.96213 5.70664 9.10864 5.92591C9.25515 6.14517 9.33335 6.40296 9.33335 6.66667C9.33335 7.02029 9.19287 7.35943 8.94282 7.60948C8.69277 7.85952 8.35363 8 8.00001 8Z" fill="white"/>
<path d="M8 16C7.43862 16.0029 6.88474 15.8712 6.38471 15.616C5.88468 15.3609 5.45306 14.9896 5.12599 14.5333C2.58533 11.0287 1.29666 8.394 1.29666 6.702C1.29666 4.92416 2.0029 3.21915 3.26002 1.96203C4.51714 0.704907 6.22216 -0.00133514 8 -0.00133514C9.77783 -0.00133514 11.4828 0.704907 12.74 1.96203C13.9971 3.21915 14.7033 4.92416 14.7033 6.702C14.7033 8.394 13.4147 11.0287 10.874 14.5333C10.5469 14.9896 10.1153 15.3609 9.61528 15.616C9.11525 15.8712 8.56137 16.0029 8 16ZM8 1.454C6.60827 1.45559 5.27401 2.00915 4.28991 2.99325C3.30581 3.97734 2.75225 5.31161 2.75066 6.70333C2.75066 8.04333 4.01266 10.5213 6.30333 13.6807C6.49779 13.9485 6.75291 14.1665 7.0478 14.3168C7.3427 14.4672 7.669 14.5455 8 14.5455C8.33099 14.5455 8.65729 14.4672 8.95219 14.3168C9.24708 14.1665 9.5022 13.9485 9.69666 13.6807C11.9873 10.5213 13.2493 8.04333 13.2493 6.70333C13.2477 5.31161 12.6942 3.97734 11.7101 2.99325C10.726 2.00915 9.39172 1.45559 8 1.454Z" fill="white"/>
</g>
<defs>
<clipPath id="clip0_1_511">
<rect width="16" height="16" fill="white"/>
</clipPath>
</defs>
</svg>
