<svg width="16" height="16" viewBox="0 0 16 16" fill="none" xmlns="http://www.w3.org/2000/svg">
<g clip-path="url(#clip0_1_401)">
<path d="M8.88763 16C8.86583 15.9876 8.8431 15.9769 8.81963 15.968C8.67677 15.9312 8.54354 15.864 8.42909 15.7709C8.31464 15.6779 8.22166 15.5611 8.15654 15.4288C8.09142 15.2964 8.0557 15.1515 8.05181 15.0041C8.04792 14.8566 8.07597 14.71 8.13403 14.5744C8.47856 13.6997 8.82923 12.8275 9.18603 11.9576C9.19995 11.9357 9.20917 11.9112 9.21312 11.8856C9.21706 11.86 9.21564 11.8338 9.20895 11.8088C9.20226 11.7837 9.19043 11.7603 9.17423 11.7401C9.15803 11.7199 9.1378 11.7032 9.11483 11.6912C8.56603 11.2688 8.02443 10.8368 7.48043 10.4112C7.45243 10.3888 7.42363 10.368 7.38603 10.34C7.35403 10.3888 7.32523 10.4296 7.29963 10.4728C7.0863 10.8307 6.87456 11.1888 6.66443 11.5472C6.57544 11.7139 6.44214 11.8527 6.27923 11.9484C6.11632 12.0442 5.93014 12.093 5.74123 12.0896C4.3503 12.0944 2.95963 12.0944 1.56923 12.0896C1.31873 12.0916 1.07612 12.0021 0.886969 11.8378C0.697823 11.6736 0.575162 11.4459 0.542029 11.1976C0.50332 10.9426 0.563038 10.6824 0.709072 10.4698C0.855107 10.2573 1.07653 10.1082 1.32843 10.0528C1.44595 10.0303 1.56565 10.0211 1.68523 10.0256C2.79456 10.0256 3.90416 10.0256 5.01403 10.0256C5.05659 10.0318 5.10001 10.0244 5.13819 10.0046C5.17636 9.98483 5.20736 9.95355 5.22683 9.9152C6.16976 8.26187 7.1151 6.61014 8.06283 4.96C8.08043 4.9296 8.09403 4.8976 8.11883 4.8496C8.05723 4.8496 8.01323 4.8416 7.96843 4.8416C7.42123 4.8416 6.87483 4.8416 6.32763 4.8416C6.28488 4.8366 6.24166 4.84569 6.20455 4.86749C6.16744 4.8893 6.13847 4.92262 6.12203 4.9624C5.81323 5.53414 5.4999 6.10374 5.18203 6.6712C5.09602 6.83971 4.96366 6.98014 4.80053 7.07595C4.6374 7.17176 4.45029 7.21896 4.26123 7.212C4.08059 7.2143 3.90283 7.16665 3.74755 7.07433C3.59227 6.98201 3.4655 6.8486 3.38123 6.6888C3.29207 6.54645 3.24248 6.3829 3.23756 6.215C3.23264 6.04711 3.27257 5.88094 3.35323 5.7336C3.79643 4.9096 4.24523 4.088 4.70763 3.2744C4.79269 3.12069 4.91868 2.99357 5.07162 2.90714C5.22457 2.82071 5.39847 2.77837 5.57403 2.7848C6.66763 2.7848 7.76203 2.7848 8.85403 2.7848C8.88889 2.77934 8.92458 2.78556 8.95555 2.80249C8.98651 2.81942 9.01101 2.84611 9.02523 2.8784C9.23747 3.32287 9.57055 3.6986 9.98636 3.9626C10.4022 4.2266 10.8839 4.36821 11.3764 4.3712C11.4193 4.37008 11.4616 4.38094 11.4987 4.40256C11.5357 4.42419 11.5659 4.45572 11.586 4.4936C11.8836 4.9576 12.1876 5.4176 12.49 5.8792C12.518 5.9216 12.5492 5.9592 12.5852 6.0144C13.0412 5.7608 13.4876 5.5064 13.9396 5.2632C14.1216 5.15376 14.3168 5.068 14.5204 5.008C14.7541 4.95686 14.9984 4.99092 15.2092 5.10401C15.42 5.21711 15.5834 5.40181 15.67 5.6248C15.7586 5.84489 15.7679 6.0889 15.6964 6.31509C15.6249 6.54128 15.477 6.7356 15.278 6.8648C15.0636 7.0016 14.8356 7.1184 14.6132 7.2424C14.018 7.5736 13.4226 7.90427 12.8268 8.2344C12.7062 8.31554 12.5699 8.37059 12.4267 8.39601C12.2836 8.42143 12.1367 8.41666 11.9955 8.38202C11.8543 8.34737 11.7218 8.28361 11.6067 8.19482C11.4916 8.10603 11.3962 7.99417 11.3268 7.8664L10.5828 6.7304C10.5556 6.6888 10.526 6.6504 10.4852 6.5896L9.06043 9.0248L10.118 9.86C10.438 10.1112 10.758 10.3608 11.078 10.6136C11.2825 10.7536 11.4299 10.9622 11.4934 11.2017C11.557 11.4412 11.5325 11.6955 11.4244 11.9184C10.99 12.9928 10.5476 14.0648 10.134 15.1448C10.0747 15.3498 9.96373 15.536 9.81174 15.6858C9.65975 15.8355 9.47184 15.9437 9.26603 16H8.88763Z" fill="#775CFF"/>
<path d="M11.4108 3.0703e-06C11.7508 0.00111753 12.0827 0.103062 12.3646 0.29293C12.6466 0.482798 12.8658 0.752052 12.9947 1.0666C13.1235 1.38116 13.1561 1.72686 13.0884 2.05995C13.0206 2.39304 12.8555 2.69854 12.6141 2.93777C12.3726 3.177 12.0656 3.33921 11.7319 3.40385C11.3982 3.46849 11.0528 3.43266 10.7394 3.30091C10.4261 3.16915 10.1589 2.94738 9.97167 2.66368C9.78444 2.37998 9.6856 2.04711 9.68765 1.7072C9.69104 1.2527 9.87418 0.818007 10.1971 0.498117C10.52 0.178227 10.9563 -0.000855125 11.4108 3.0703e-06Z" fill="#775CFF"/>
</g>
<defs>
<clipPath id="clip0_1_401">
<rect width="16" height="16" fill="white"/>
</clipPath>
</defs>
</svg>
