<svg width="56" height="53" viewBox="0 0 56 53" fill="none" xmlns="http://www.w3.org/2000/svg">
<path d="M6.59282 24.8065V23.7659C3.02679 26.1871 0.662384 30.0953 0.119072 34.4662C-0.424186 38.837 0.908592 43.2351 3.76708 46.507L2.93369 53L8.33569 50.0272C12.9756 52.3201 18.4415 51.9283 22.7302 48.9948C17.9877 47.1204 13.9064 43.8054 11.0257 39.4869C8.14453 35.169 6.59929 30.0505 6.59293 24.8065L6.59282 24.8065Z" fill="#CBC0FF"/>
<path d="M55.3456 28.7251C54.8537 31.6706 53.8421 34.4972 52.3604 37.0646L54.0182 42.1493L55.6849 47.1794L46.1619 44.2223C45.4169 44.7904 44.6411 45.3126 43.8367 45.7868C43.3014 46.1049 42.7508 46.405 42.1853 46.6866C41.6192 46.9791 41.0437 47.2394 40.4577 47.4691C39.8717 47.6988 39.2729 47.9073 38.662 48.095C38.1267 48.2565 37.5861 48.4 37.0407 48.525C32.7883 49.4706 28.3665 49.2 24.2525 47.7425L23.7673 47.5706C22.5012 47.0925 21.2772 46.5043 20.1082 45.8107L19.6157 45.5057C19.2923 45.2967 18.9715 45.0828 18.6534 44.864L18.1836 44.5278C17.8702 44.3035 17.5648 44.0689 17.2667 43.8239L16.8196 43.4561C16.3799 43.0807 15.9535 42.6894 15.5392 42.2829C15.2665 42.0117 14.9985 41.735 14.7359 41.4535C14.3422 41.0257 13.9633 40.5848 13.5997 40.1313C13.3571 39.8285 13.1225 39.5207 12.8953 39.208C12.668 38.8953 12.4482 38.5745 12.2363 38.246C11.9181 37.7658 11.6153 37.2654 11.3273 36.7437C11.1407 36.4043 10.959 36.0578 10.7819 35.7031C9.96911 34.1022 9.33125 32.4122 8.88047 30.6655C8.78429 30.2742 8.69604 29.8781 8.61519 29.4765C8.29282 27.8492 8.13006 26.1931 8.13059 24.532C8.13059 23.9061 8.15331 23.2857 8.19876 22.6702C8.28755 21.4326 8.46775 20.2032 8.73674 18.9934C8.82764 18.5973 8.92593 18.206 9.03216 17.8202L9.19863 17.2413C9.31436 16.8555 9.43855 16.4746 9.56961 16.0992C9.96645 14.9771 10.4421 13.8869 10.9938 12.837C11.1809 12.4927 11.3727 12.1511 11.5698 11.8123C12.0655 10.9709 12.6088 10.1611 13.198 9.38733C13.4559 9.07957 13.7085 8.77725 13.9558 8.47986C14.1984 8.18301 14.451 7.89326 14.7136 7.61169C14.9763 7.33013 15.2442 7.05346 15.5169 6.78226C19.9332 2.42885 25.8029 0 31.9083 0C38.0136 0 43.8837 2.42885 48.2991 6.78226C48.5718 7.05346 48.8397 7.33013 49.1024 7.61169C49.3402 7.89326 49.5922 8.18247 49.8602 8.47986C50.1281 8.77725 50.3807 9.07957 50.618 9.38733C51.2072 10.1611 51.7515 10.9708 52.2467 11.8123C52.4491 12.1462 52.6409 12.4878 52.8227 12.837C53.3739 13.887 53.8506 14.9773 54.2474 16.0992C54.3785 16.4746 54.5022 16.8555 54.6184 17.2413L54.7849 17.8202C54.8911 18.206 54.9894 18.5973 55.0803 18.9934C55.6695 21.6416 55.8339 24.3711 55.5654 27.0744C55.5099 27.6533 55.4365 28.2034 55.3456 28.7251Z" fill="#775CFF"/>
<path d="M19.8467 28.9591C19.8467 28.9591 15.704 27.4147 15.704 24.5989C15.6954 23.4211 16.6883 22.4696 17.9123 22.4696C18.7768 22.4696 19.53 22.9532 19.8895 23.6552C20.249 22.9532 21.0023 22.4696 21.8668 22.4696C23.0908 22.4696 24.0837 23.4212 24.0837 24.5989C24.0837 27.3991 19.8467 28.9591 19.8467 28.9591Z" fill="white"/>
<path d="M31.3689 28.9591C31.3689 28.9591 27.2261 27.4147 27.2261 24.5989C27.2176 23.4211 28.2104 22.4696 29.4344 22.4696C30.2989 22.4696 31.0522 22.9532 31.4117 23.6552C31.7712 22.9532 32.5244 22.4696 33.3889 22.4696C34.613 22.4696 35.6058 23.4212 35.6058 24.5989C35.6058 27.3991 31.3689 28.9591 31.3689 28.9591Z" fill="white"/>
<path d="M42.891 28.9591C42.891 28.9591 38.7482 27.4147 38.7482 24.5989C38.7397 23.4211 39.7325 22.4696 40.9566 22.4696C41.8211 22.4696 42.5743 22.9532 42.9338 23.6552C43.2933 22.9532 44.0466 22.4696 44.9111 22.4696C46.1351 22.4696 47.128 23.4212 47.128 24.5989C47.128 27.3991 42.891 28.9591 42.891 28.9591Z" fill="white"/>
</svg>
