<svg width="17" height="25" viewBox="0 0 17 25" fill="none" xmlns="http://www.w3.org/2000/svg">
<g clip-path="url(#clip0_1_615)">
<path d="M8.15494 25C7.57021 24.799 7.34571 24.3865 7.36659 23.7809C7.39009 23.0239 7.36659 22.2669 7.37704 21.5099C7.37965 21.3115 7.317 21.2671 7.13166 21.2697C6.57825 21.2801 6.02223 21.2854 5.46882 21.2697C4.64131 21.2462 4.17144 20.4474 4.58649 19.7818C4.77706 19.4737 5.0642 19.3249 5.42444 19.3223C5.99612 19.3223 6.56519 19.3119 7.13688 19.3249C7.33527 19.3302 7.37965 19.2649 7.37704 19.077C7.36659 18.3121 7.36659 17.5472 7.37704 16.7824C7.37704 16.5944 7.33527 16.5266 7.13427 16.49C3.72506 15.887 1.41744 13.9449 0.39938 10.6531C-0.456838 7.89652 0.0782982 5.29654 1.9082 3.0568C3.79032 0.757018 6.2911 -0.240163 9.25393 0.0495938C12.577 0.373286 15.4145 2.73572 16.3177 5.92304C17.1061 8.70053 16.6023 11.2692 14.7985 13.5272C13.4645 15.1979 11.6921 16.1742 9.56979 16.4952C9.39489 16.5213 9.3218 16.5631 9.32441 16.7589C9.33746 17.5394 9.33485 18.3225 9.32441 19.1031C9.32441 19.2701 9.36618 19.3276 9.54107 19.3249C10.1441 19.3171 10.7471 19.3145 11.3501 19.3302C11.7913 19.3432 12.1306 19.6434 12.2376 20.0741C12.3368 20.4761 12.1541 20.9095 11.7939 21.1261C11.5981 21.2436 11.384 21.2749 11.1595 21.2749C10.6296 21.2749 10.0997 21.2828 9.56979 21.2723C9.38445 21.2671 9.31919 21.3141 9.32441 21.5125C9.33746 22.2695 9.31136 23.0265 9.33485 23.7835C9.35312 24.3892 9.12863 24.8042 8.5465 25.0026H8.15494V25ZM8.3194 14.6392C11.7991 14.6758 14.6627 11.8539 14.7123 8.33768C14.7619 4.85538 11.9244 1.98392 8.39249 1.94215C4.89975 1.90038 2.02306 4.73269 1.98652 8.25154C1.94997 11.7364 4.7875 14.6001 8.31679 14.6366L8.3194 14.6392Z" fill="black"/>
</g>
<defs>
<clipPath id="clip0_1_615">
<rect width="16.678" height="25" fill="white"/>
</clipPath>
</defs>
</svg>
