<svg width="16" height="16" viewBox="0 0 16 16" fill="none" xmlns="http://www.w3.org/2000/svg">
<g clip-path="url(#clip0_1_449)">
<path d="M2.57555 16C2.44781 15.9355 2.32806 15.8563 2.21876 15.764C2.12243 15.6596 2.06127 15.5277 2.0439 15.3867C2.02654 15.2458 2.05384 15.103 2.12195 14.9784L1.48195 14.6192C1.40195 14.576 1.32675 14.5352 1.25075 14.4888C1.20659 14.4701 1.16727 14.4416 1.13581 14.4055C1.10434 14.3693 1.08156 14.3264 1.06921 14.2801C1.05686 14.2338 1.05526 14.1853 1.06454 14.1382C1.07382 14.0912 1.09373 14.0469 1.12275 14.0088C1.31955 13.6544 1.52275 13.3024 1.72115 12.9496L3.32115 10.1264C3.48115 9.83677 3.61395 9.80077 3.90195 9.96237L4.99555 10.5744C5.02835 10.52 5.05475 10.476 5.08035 10.4312C5.28195 10.0736 5.48035 9.71117 5.68595 9.35757C5.78355 9.18797 5.88755 9.04477 5.73155 8.83277C5.68163 8.74045 5.65691 8.63662 5.65985 8.53172C5.6628 8.42681 5.69333 8.32453 5.74835 8.23517C6.17709 7.2402 6.74459 6.31097 7.43395 5.47517C7.78355 5.04237 8.14835 4.61917 8.53795 4.22237C8.83926 3.89364 9.25669 3.69511 9.70183 3.66883C10.147 3.64255 10.5849 3.79058 10.9228 4.08157C11.3228 4.39437 11.69 4.73837 12.0876 5.04957C12.658 5.54142 13.33 5.90119 14.0556 6.10317C14.1916 6.13517 14.3308 6.15357 14.4676 6.18317C14.6425 6.21672 14.7979 6.31624 14.9016 6.46114C15.0052 6.60604 15.0492 6.78524 15.0245 6.96167C14.9997 7.1381 14.9081 7.29826 14.7685 7.40902C14.629 7.51979 14.4522 7.57268 14.2748 7.55677C13.4942 7.50203 12.7357 7.27352 12.0548 6.88797C11.8948 6.79197 11.7444 6.68317 11.5644 6.56797C11.5804 6.77997 11.5916 6.97357 11.6092 7.16717C11.6564 7.70077 11.7012 8.23437 11.7548 8.76717C11.7818 8.94806 11.7721 9.13255 11.7262 9.3096C11.6802 9.48664 11.5991 9.65261 11.4876 9.79757C11.6476 10.0752 11.8172 10.3456 11.9724 10.6216C12.714 11.9352 13.378 13.2872 13.9892 14.6656C14.0602 14.7852 14.102 14.9198 14.1113 15.0586C14.1205 15.1974 14.0969 15.3365 14.0424 15.4644C13.9878 15.5924 13.9039 15.7057 13.7973 15.7951C13.6908 15.8846 13.5646 15.9476 13.4292 15.9792C13.4153 15.9864 13.4024 15.9952 13.3908 16.0056H13.0468C12.8741 15.9499 12.717 15.8544 12.588 15.7268C12.4591 15.5993 12.3619 15.4432 12.3044 15.2712C11.6935 13.8661 11.0022 12.4975 10.234 11.172C10.2068 11.1264 10.1764 11.0816 10.1396 11.0224C10.0996 11.0928 10.07 11.1408 10.0436 11.1912C9.31315 12.5728 8.57955 13.9528 7.85555 15.3384C7.78914 15.4988 7.68739 15.6422 7.55788 15.7578C7.42837 15.8735 7.27444 15.9584 7.10755 16.0064H6.76355C6.62072 15.9395 6.48463 15.8592 6.35715 15.7664C6.19965 15.6226 6.09969 15.4266 6.07586 15.2147C6.05202 15.0028 6.10593 14.7895 6.22755 14.6144C7.06275 13.0981 7.89902 11.5824 8.73635 10.0672C8.75946 10.0298 8.77061 9.98625 8.76832 9.94237C8.76603 9.89849 8.75042 9.85634 8.72355 9.82157C8.61259 9.6418 8.53432 9.44382 8.49235 9.23677C8.41715 8.64397 8.37955 8.04557 8.32675 7.45037C8.30595 7.21677 8.28195 6.98237 8.25875 6.74877C7.99878 7.07885 7.7617 7.42633 7.54915 7.78877C7.36195 8.10877 7.20515 8.45277 7.04515 8.79037C7.00349 8.90322 6.93666 9.00509 6.84975 9.08826C6.76284 9.17143 6.65813 9.23371 6.54355 9.27037C6.4884 9.29592 6.44376 9.33972 6.41715 9.39437C5.38782 11.1954 4.35929 12.997 3.33155 14.7992C3.31057 14.8307 3.29938 14.8677 3.29938 14.9056C3.29938 14.9434 3.31057 14.9804 3.33155 15.012C3.37764 15.097 3.40511 15.1909 3.41213 15.2873C3.41915 15.3838 3.40556 15.4806 3.37227 15.5714C3.33897 15.6622 3.28673 15.7449 3.21902 15.814C3.15131 15.883 3.06968 15.9369 2.97955 15.972C2.94755 15.9856 2.91715 16.0024 2.88595 16.0176L2.57555 16ZM2.95555 15.3304C2.95487 15.2988 2.94799 15.2678 2.9353 15.2389C2.9226 15.2101 2.90435 15.184 2.88158 15.1622C2.85881 15.1404 2.83197 15.1233 2.80259 15.1118C2.77322 15.1004 2.74187 15.0949 2.71035 15.0956C2.67884 15.0963 2.64776 15.1031 2.61891 15.1158C2.59005 15.1285 2.56398 15.1468 2.54217 15.1695C2.52037 15.1923 2.50326 15.2191 2.49183 15.2485C2.4804 15.2779 2.47487 15.3092 2.47555 15.3408C2.47624 15.3723 2.48312 15.4034 2.49581 15.4322C2.50851 15.4611 2.52676 15.4871 2.54953 15.5089C2.5723 15.5308 2.59914 15.5479 2.62852 15.5593C2.65789 15.5707 2.68924 15.5763 2.72075 15.5756C2.75227 15.5749 2.78335 15.568 2.8122 15.5553C2.84106 15.5426 2.86713 15.5244 2.88894 15.5016C2.91074 15.4788 2.92785 15.452 2.93928 15.4226C2.95071 15.3932 2.95624 15.3619 2.95555 15.3304Z" fill="#121212"/>
<path d="M8.12918 1.78957C8.12997 1.43413 8.23617 1.08691 8.43434 0.791837C8.6325 0.496762 8.91373 0.267089 9.24244 0.131874C9.57116 -0.00334232 9.9326 -0.038026 10.281 0.0322101C10.6295 0.102446 10.9492 0.274446 11.1999 0.526452C11.4506 0.778457 11.6208 1.09915 11.6892 1.44795C11.7576 1.79675 11.721 2.158 11.584 2.48599C11.447 2.81398 11.2159 3.09397 10.9197 3.29056C10.6236 3.48714 10.2758 3.59148 9.92038 3.59037C9.68432 3.59048 9.45056 3.54391 9.23257 3.45333C9.01457 3.36275 8.81664 3.22996 8.65017 3.06259C8.48369 2.89522 8.35196 2.69658 8.26255 2.47811C8.17314 2.25963 8.12781 2.02563 8.12918 1.78957Z" fill="#121212"/>
</g>
<defs>
<clipPath id="clip0_1_449">
<rect width="16" height="16" fill="white"/>
</clipPath>
</defs>
</svg>
