<svg width="25" height="25" viewBox="0 0 25 25" fill="none" xmlns="http://www.w3.org/2000/svg">
<g clip-path="url(#clip0_1_619)">
<path d="M0 14.9931C0.0344828 14.7517 0.0689655 14.5103 0.103448 14.2759C0.531035 11.5724 1.88276 9.43448 4.12414 7.87586C5.31035 7.05517 6.63448 6.54483 8.06897 6.35862C10.6069 6.02069 12.9103 6.61379 14.9724 8.13103C15.1586 8.26897 15.2621 8.28276 15.4414 8.10345C17.3517 6.17931 19.269 4.26897 21.1862 2.35172C21.2552 2.28276 21.3172 2.21379 21.4138 2.11034C21.2897 2.11034 21.2 2.09655 21.1172 2.09655C19.6828 2.09655 18.2552 2.09655 16.8207 2.09655C16.4828 2.09655 16.1655 2.03448 15.931 1.77931C15.6414 1.46897 15.5448 1.10345 15.6966 0.696552C15.8483 0.296552 16.1517 0.0689658 16.5724 0.0137934C16.6621 3.15718e-07 16.7517 0.00689687 16.8414 0.00689687C19.1517 0.00689687 21.4621 0.00689687 23.7724 0.00689687C24.5931 0.00689687 25 0.413793 25 1.23448C25 3.57241 25 5.90345 25 8.24138C25 8.68276 24.8414 9.03448 24.4414 9.24828C23.8138 9.58621 23.0483 9.2069 22.9379 8.49655C22.9172 8.37931 22.9103 8.25517 22.9103 8.13103C22.9103 6.72414 22.9103 5.31724 22.9103 3.91034C22.9103 3.82069 22.9103 3.73103 22.9103 3.64828C22.8138 3.62069 22.7862 3.69655 22.7448 3.73793C20.7724 5.70345 18.8069 7.67586 16.8345 9.63448C16.6897 9.77931 16.7448 9.85517 16.8345 9.97241C17.7862 11.2207 18.4 12.6138 18.6207 14.1655C19.0414 17.0966 18.2759 19.6966 16.3034 21.9103C14.9172 23.469 13.1724 24.4207 11.131 24.8345C10.7586 24.9103 10.3793 24.9517 10 25.0069H8.73103C8.51724 24.9724 8.30345 24.9379 8.08276 24.9103C6.64138 24.7172 5.30345 24.2138 4.11724 23.3862C1.88276 21.8207 0.531035 19.6828 0.103448 16.9793C0.0689655 16.7379 0.0344828 16.5034 0 16.2621C0 15.8414 0 15.4138 0 14.9931ZM2.08966 15.6276C2.08966 19.6414 5.33103 22.8966 9.36552 22.9172C13.3724 22.9379 16.6621 19.6552 16.6621 15.6276C16.6621 11.6069 13.4345 8.36552 9.3931 8.34483C5.38621 8.32414 2.09655 11.6069 2.08966 15.6276Z" fill="white"/>
</g>
<defs>
<clipPath id="clip0_1_619">
<rect width="25" height="25" fill="white"/>
</clipPath>
</defs>
</svg>
