<svg width="17" height="16" viewBox="0 0 17 16" fill="none" xmlns="http://www.w3.org/2000/svg">
<g clip-path="url(#clip0_1_436)">
<path d="M0 11.2794C0.0496007 11.0355 0.11279 10.7945 0.189273 10.5576C0.374967 10.005 0.711409 9.51525 1.16064 9.14368C1.60986 8.77212 2.15399 8.53349 2.73163 8.45473C3.36742 8.35559 4.01833 8.45152 4.5985 8.72986C5.17866 9.0082 5.66081 9.45588 5.98135 10.0138C5.98706 10.03 5.99135 10.0466 5.99419 10.0636L5.27238 10.7156C5.11574 10.3592 4.86781 10.0505 4.55363 9.82071C4.23945 9.59089 3.87017 9.44808 3.48311 9.40671C3.19507 9.36724 2.90202 9.38654 2.62165 9.46346C2.34128 9.54037 2.0794 9.67331 1.85183 9.85423C1.40457 10.2217 1.11647 10.7476 1.04763 11.3223C0.978791 11.897 1.13453 12.4762 1.48236 12.9388C1.83019 13.4015 2.34323 13.712 2.91445 13.8055C3.48568 13.899 4.07095 13.7684 4.54817 13.4408L5.33815 14.0375C5.12697 14.2405 4.88291 14.4061 4.61634 14.5275C4.1599 14.75 3.65716 14.861 3.14946 14.8513C2.64177 14.8416 2.14362 14.7116 1.696 14.4718C1.24837 14.2321 0.864051 13.8895 0.574644 13.4723C0.285236 13.055 0.0990091 12.575 0.0312782 12.0718C0.0234524 12.0366 0.012997 12.002 0 11.9683L0 11.2794Z" fill="#775CFF"/>
<path d="M8.98727 6.68792L7.77785 7.44421C7.84041 7.48351 7.88612 7.51559 7.93825 7.54366C8.43389 7.83158 8.93193 8.11549 9.42517 8.40822C9.53972 8.46599 9.64157 8.54609 9.72472 8.6438C9.80787 8.74151 9.87064 8.85486 9.90935 8.97718C9.94806 9.0995 9.96191 9.22833 9.95011 9.35608C9.9383 9.48384 9.90107 9.60794 9.84061 9.7211C9.78666 9.82215 9.71831 9.91481 9.6377 9.99619C8.64375 11.0318 7.64792 12.0659 6.65023 13.0983C6.56406 13.1993 6.45814 13.2815 6.339 13.34C6.21985 13.3985 6.09 13.432 5.95743 13.4384C5.82486 13.4449 5.69238 13.4241 5.56814 13.3774C5.44389 13.3307 5.33051 13.2591 5.23498 13.167C5.13944 13.0748 5.06377 12.9641 5.01262 12.8417C4.96147 12.7192 4.93592 12.5875 4.93755 12.4548C4.93917 12.3221 4.96794 12.1911 5.02208 12.07C5.07621 11.9488 5.15457 11.8399 5.25233 11.7502C5.87843 11.0995 6.50533 10.4493 7.13304 9.7997L7.31509 9.60882C7.25654 9.56872 7.20762 9.53343 7.15469 9.50135C6.36792 8.98967 5.58517 8.47158 4.79279 7.96872C4.59946 7.85003 4.43561 7.689 4.31356 7.49778C4.19151 7.30656 4.11445 7.09013 4.0882 6.86481C4.06194 6.63948 4.08717 6.41113 4.16199 6.19697C4.2368 5.98282 4.35925 5.78843 4.5201 5.62847C4.66767 5.45959 4.83862 5.31267 5.02777 5.19218C6.14096 4.48428 7.25842 3.78332 8.38016 3.08932C8.6402 2.89865 8.9606 2.80885 9.28186 2.83658C9.60312 2.86431 9.9034 3.00769 10.1269 3.2401C10.4083 3.5467 10.6322 3.90151 10.7878 4.28752C10.8466 4.56081 10.8466 4.8435 10.7878 5.11679C10.7573 5.51779 10.7076 5.91158 10.6603 6.3198C11.2626 6.42005 11.8424 6.51549 12.4247 6.61333C12.6051 6.63796 12.7842 6.67169 12.9612 6.71438C13.1434 6.76806 13.3007 6.88466 13.4049 7.04342C13.5092 7.20219 13.5538 7.39282 13.5306 7.58135C13.5093 7.7729 13.4192 7.9502 13.277 8.0803C13.1348 8.2104 12.9502 8.28446 12.7575 8.28872C12.472 8.26586 12.1883 8.22461 11.9082 8.16521C11.1864 8.04571 10.4598 7.92461 9.73554 7.80271C9.62202 7.79324 9.51168 7.76039 9.41145 7.70623C9.31123 7.65206 9.2233 7.57776 9.15318 7.48798C9.08305 7.39819 9.03226 7.29488 9.00398 7.18452C8.97571 7.07417 8.97056 6.95915 8.98888 6.84671C8.99289 6.8026 8.98888 6.75769 8.98888 6.68631" fill="#775CFF"/>
<path d="M12.8241 8.41061C13.4609 8.41157 14.0831 8.60131 14.6121 8.95585C15.1411 9.3104 15.553 9.81382 15.7959 10.4025C16.0388 10.9911 16.1017 11.6386 15.9766 12.263C15.8516 12.8874 15.5442 13.4607 15.0934 13.9104C14.6425 14.3601 14.0685 14.6661 13.4438 14.7896C12.8191 14.9131 12.1718 14.8486 11.5837 14.6042C10.9957 14.3599 10.4933 13.9466 10.14 13.4168C9.78681 12.8869 9.59861 12.2643 9.59924 11.6275C9.60158 10.7736 9.94234 9.95555 10.5468 9.35255C11.1514 8.74955 11.9703 8.41082 12.8241 8.41061ZM10.5785 11.6307C10.5774 12.075 10.7081 12.5098 10.9542 12.8798C11.2003 13.2498 11.5506 13.5385 11.9608 13.7093C12.3711 13.8802 12.8228 13.9254 13.2588 13.8394C13.6947 13.7534 14.0954 13.54 14.41 13.2262C14.7246 12.9123 14.9391 12.5122 15.0262 12.0764C15.1133 11.6407 15.0691 11.1889 14.8993 10.7782C14.7295 10.3676 14.4417 10.0165 14.0723 9.76951C13.7029 9.52251 13.2685 9.39067 12.8241 9.39066C12.2295 9.39066 11.6592 9.62648 11.2382 10.0464C10.8172 10.4663 10.58 11.0361 10.5785 11.6307Z" fill="#775CFF"/>
<path d="M10.6226 2.69152C10.6205 2.26484 10.7879 1.85478 11.0881 1.55157C11.3883 1.24835 11.7967 1.07681 12.2234 1.07468C12.6501 1.07255 13.0601 1.24001 13.3633 1.54022C13.6666 1.84043 13.8381 2.2488 13.8402 2.67548C13.8413 2.88676 13.8007 3.09617 13.7208 3.29176C13.6409 3.48736 13.5233 3.6653 13.3747 3.81544C13.226 3.96558 13.0493 4.08497 12.8545 4.16679C12.6597 4.24862 12.4507 4.29127 12.2394 4.29233C11.8127 4.29445 11.4027 4.12699 11.0995 3.82678C10.7962 3.52657 10.6247 3.11821 10.6226 2.69152Z" fill="#775CFF"/>
</g>
<defs>
<clipPath id="clip0_1_436">
<rect width="16.0401" height="16" fill="white"/>
</clipPath>
</defs>
</svg>
