<svg width="16" height="16" viewBox="0 0 16 16" fill="none" xmlns="http://www.w3.org/2000/svg">
<g clip-path="url(#clip0_1_409)">
<path d="M7.25825 16C7.21569 15.9744 7.17161 15.9515 7.12625 15.9312C5.66331 15.3808 4.19985 14.831 2.73585 14.2816C2.39425 14.1536 2.32065 14.0464 2.32065 13.6776V12.8248C2.43425 12.8152 2.54145 12.812 2.64705 12.7952C2.96679 12.7631 3.26481 12.6187 3.48827 12.3878C3.71174 12.1569 3.84621 11.8543 3.86785 11.5336C3.91266 11.0301 3.91266 10.5236 3.86785 10.02C3.8404 9.66475 3.67643 9.33391 3.41034 9.09691C3.14425 8.8599 2.79672 8.73515 2.44065 8.74883H2.31985V8.23443C2.31985 8.06803 2.31985 7.90083 2.31985 7.73443C2.31334 7.65326 2.32824 7.57179 2.36306 7.49818C2.39788 7.42456 2.45139 7.36137 2.51826 7.3149C2.58513 7.26843 2.66302 7.24031 2.74416 7.23335C2.8253 7.22639 2.90684 7.24083 2.98065 7.27523C3.65345 7.52243 4.32305 7.77683 4.99425 8.02803C5.71905 8.29923 6.44225 8.57363 7.16945 8.83923C7.2187 8.8495 7.26212 8.87832 7.29071 8.91972C7.31931 8.96112 7.33088 9.01193 7.32305 9.06163C7.31878 11.3736 7.31878 13.6859 7.32305 15.9984L7.25825 16Z" fill="#775CFF"/>
<path d="M8.25826 16C8.25826 13.6928 8.25826 11.3859 8.25826 9.07922C8.25042 9.02523 8.26354 8.97028 8.29493 8.92565C8.32632 8.88102 8.3736 8.8501 8.42706 8.83922C9.80546 8.32802 11.1807 7.80882 12.5575 7.29202C12.6185 7.25939 12.686 7.24037 12.7551 7.23625C12.8242 7.23214 12.8934 7.24304 12.958 7.26819C13.0225 7.29335 13.0808 7.33217 13.1289 7.38199C13.177 7.43181 13.2138 7.49145 13.2367 7.55682C13.2478 7.58029 13.2551 7.60542 13.2583 7.63122C13.2583 8.00002 13.2583 8.36802 13.2583 8.73442C13.1 8.74631 12.9424 8.76661 12.7863 8.79522C12.5076 8.85004 12.2542 8.99347 12.0637 9.20411C11.8733 9.41474 11.756 9.6813 11.7295 9.96402C11.6784 10.5079 11.6784 11.0554 11.7295 11.5992C11.7656 11.9373 11.9271 12.2496 12.1821 12.4746C12.4371 12.6995 12.7671 12.8207 13.1071 12.8144C13.1527 12.8144 13.1983 12.8144 13.2567 12.8144C13.2567 13.18 13.2719 13.5344 13.2511 13.8848C13.2383 14.0984 13.0663 14.2048 12.8743 14.2784C11.95 14.6224 11.0263 14.9691 10.1031 15.3184C9.54893 15.5259 8.99506 15.7339 8.44146 15.9424C8.40086 15.9608 8.36157 15.9819 8.32386 16.0056L8.25826 16Z" fill="#775CFF"/>
<path d="M7.79106 5.31122C7.26525 5.31154 6.75117 5.15577 6.31396 4.86365C5.87675 4.57154 5.53608 4.15622 5.33512 3.67032C5.13416 3.18442 5.08194 2.64981 5.18509 2.13421C5.28824 1.61861 5.54211 1.14522 5.91453 0.774032C6.28696 0.402841 6.76118 0.150546 7.27712 0.0491113C7.79306 -0.0523233 8.3275 0.00166709 8.81273 0.204242C9.29796 0.406817 9.71214 0.748861 10.0028 1.18704C10.2935 1.62522 10.4475 2.13981 10.4455 2.66562C10.4451 3.0137 10.3762 3.3583 10.2426 3.67971C10.109 4.00112 9.91331 4.29304 9.66677 4.53876C9.42024 4.78447 9.12767 4.97918 8.80582 5.11172C8.48397 5.24427 8.13914 5.31206 7.79106 5.31122Z" fill="#775CFF"/>
<path d="M4.14465 6.70482C4.62336 6.27167 5.17764 5.93026 5.77985 5.69762C5.83522 5.68681 5.89261 5.698 5.93985 5.72882C6.49774 6.07137 7.1396 6.2527 7.79425 6.2527C8.44891 6.2527 9.09077 6.07137 9.64865 5.72882C9.69992 5.69762 9.76132 5.68758 9.81985 5.70082C10.4192 5.93604 10.9708 6.27813 11.4479 6.71042L11.0727 6.85202C10.0327 7.24322 8.99265 7.63602 7.95265 8.02082C7.8574 8.05283 7.7543 8.05283 7.65905 8.02082C6.53905 7.60802 5.41905 7.18722 4.29905 6.76802C4.25185 6.75042 4.20705 6.72722 4.14865 6.70082" fill="#775CFF"/>
<path d="M12.635 10.768C12.635 10.5656 12.635 10.3624 12.635 10.16C12.6331 10.0975 12.6441 10.0352 12.6673 9.97713C12.6905 9.91902 12.7253 9.86631 12.7698 9.82226C12.8142 9.77822 12.8672 9.74378 12.9255 9.7211C12.9838 9.69841 13.0461 9.68797 13.1086 9.69041C13.2959 9.68197 13.4836 9.69269 13.6686 9.72242C13.9332 9.78114 14.1661 9.93703 14.3212 10.1593C14.4763 10.3815 14.5423 10.6538 14.5062 10.9224C14.4719 11.185 14.3437 11.4264 14.1454 11.602C13.947 11.7775 13.6919 11.8754 13.427 11.8776C13.3182 11.8776 13.2086 11.8776 13.0998 11.8776C13.0386 11.8779 12.9779 11.866 12.9214 11.8426C12.8648 11.8192 12.8135 11.7847 12.7704 11.7412C12.7274 11.6977 12.6934 11.646 12.6706 11.5892C12.6478 11.5324 12.6365 11.4716 12.6374 11.4104C12.6374 11.1976 12.6374 10.984 12.6374 10.7704" fill="#775CFF"/>
<path d="M2.94464 10.7808C2.94464 10.9784 2.94464 11.176 2.94464 11.3736C2.95027 11.4414 2.94091 11.5095 2.91724 11.5732C2.89357 11.637 2.85617 11.6947 2.80769 11.7423C2.7592 11.79 2.70083 11.8264 2.6367 11.8489C2.57258 11.8715 2.50427 11.8796 2.43664 11.8728C2.26055 11.8798 2.0842 11.8691 1.91024 11.8408C1.64625 11.7813 1.41408 11.6251 1.25938 11.4031C1.10469 11.181 1.03864 10.9091 1.07424 10.6408C1.10933 10.3784 1.238 10.1375 1.43659 9.96246C1.63518 9.78739 1.89031 9.68994 2.15504 9.68803H2.43584C2.50483 9.68171 2.57436 9.69079 2.63941 9.71461C2.70446 9.73843 2.76341 9.77638 2.81201 9.82575C2.86062 9.87512 2.89765 9.93466 2.92045 10.0001C2.94324 10.0655 2.95123 10.1352 2.94384 10.204C2.94384 10.396 2.94384 10.5888 2.94384 10.7808" fill="#775CFF"/>
</g>
<defs>
<clipPath id="clip0_1_409">
<rect width="16" height="16" fill="white"/>
</clipPath>
</defs>
</svg>
